<mxfile host="app.diagrams.net" modified="2022-01-25T01:48:00.841Z" agent="5.0 (Windows NT 10.0; Win64; x64) AppleWebKit/537.36 (KHTML, like Gecko) Chrome/97.0.4692.71 Safari/537.36" etag="KCopvCCedu1OgT53861Q" version="16.4.6" type="github" pages="3">
  <diagram id="bHLJ33jiGBxl9nC773XA" name="1.Mensagem">
    <mxGraphModel dx="1422" dy="794" grid="1" gridSize="10" guides="1" tooltips="1" connect="1" arrows="1" fold="1" page="1" pageScale="1" pageWidth="827" pageHeight="1169" math="0" shadow="0">
      <root>
        <mxCell id="0" />
        <mxCell id="1" parent="0" />
        <mxCell id="xObSriB6eqIMl1O0uH-g-3" value="" style="endArrow=none;dashed=1;html=1;rounded=0;fontSize=14;entryX=0.056;entryY=1.025;entryDx=0;entryDy=0;entryPerimeter=0;" edge="1" parent="1" target="5uMpG6s0d6BxoGgBaUhV-2">
          <mxGeometry width="50" height="50" relative="1" as="geometry">
            <mxPoint x="80" y="1120" as="sourcePoint" />
            <mxPoint x="80" y="200" as="targetPoint" />
          </mxGeometry>
        </mxCell>
        <mxCell id="xObSriB6eqIMl1O0uH-g-5" value="" style="endArrow=none;dashed=1;html=1;rounded=0;fontSize=14;entryX=0.96;entryY=1.017;entryDx=0;entryDy=0;entryPerimeter=0;" edge="1" parent="1" target="5uMpG6s0d6BxoGgBaUhV-2">
          <mxGeometry width="50" height="50" relative="1" as="geometry">
            <mxPoint x="760" y="1120" as="sourcePoint" />
            <mxPoint x="760" y="200" as="targetPoint" />
            <Array as="points" />
          </mxGeometry>
        </mxCell>
        <mxCell id="xObSriB6eqIMl1O0uH-g-1" value="" style="rounded=0;whiteSpace=wrap;html=1;fontSize=14;fillColor=#f8cecc;strokeColor=#b85450;" vertex="1" parent="1">
          <mxGeometry x="34" y="40" width="760" height="150" as="geometry" />
        </mxCell>
        <mxCell id="xObSriB6eqIMl1O0uH-g-2" value="" style="ellipse;shape=cloud;whiteSpace=wrap;html=1;fontSize=14;fillColor=#ffe6cc;strokeColor=#d79b00;" vertex="1" parent="1">
          <mxGeometry x="319" y="50" width="190" height="60" as="geometry" />
        </mxCell>
        <mxCell id="5uMpG6s0d6BxoGgBaUhV-2" value="&lt;h1&gt;&lt;span style=&quot;white-space: pre&quot;&gt;	&lt;/span&gt;&lt;span style=&quot;white-space: pre&quot;&gt;	&lt;/span&gt;&lt;span style=&quot;white-space: pre&quot;&gt;	&lt;/span&gt;&lt;span style=&quot;white-space: pre&quot;&gt;	&lt;/span&gt;&lt;span style=&quot;white-space: pre&quot;&gt;	&lt;/span&gt;&lt;span style=&quot;white-space: pre&quot;&gt;	&lt;/span&gt;&amp;nbsp;&lt;font style=&quot;font-size: 26px&quot;&gt;Aula II&lt;/font&gt;&lt;br&gt;&lt;/h1&gt;&lt;p style=&quot;font-size: 14px&quot;&gt;&lt;span style=&quot;white-space: pre&quot;&gt;	&lt;/span&gt;&lt;span style=&quot;white-space: pre&quot;&gt;	&lt;/span&gt;&lt;span style=&quot;white-space: pre&quot;&gt;	&lt;/span&gt;&lt;span style=&quot;white-space: pre&quot;&gt;	&lt;/span&gt;&lt;span style=&quot;white-space: pre&quot;&gt;	&lt;/span&gt;&lt;span style=&quot;white-space: pre&quot;&gt;	&lt;/span&gt;&lt;span style=&quot;white-space: pre&quot;&gt;	&lt;span style=&quot;white-space: pre&quot;&gt;	&lt;/span&gt;&lt;/span&gt;Lógica de Programação com Fluxograma&lt;br&gt;&lt;/p&gt;&lt;p style=&quot;font-size: 14px&quot;&gt;&lt;span style=&quot;white-space: pre&quot;&gt;	&lt;/span&gt;&lt;span style=&quot;white-space: pre&quot;&gt;	&lt;/span&gt;&lt;span style=&quot;white-space: pre&quot;&gt;	&lt;/span&gt;&lt;span style=&quot;white-space: pre&quot;&gt;	&lt;/span&gt;Criar um programa que exiba uma mensagem na tela. &lt;b&gt;Mensagem: &quot;Olá Mundo!&quot;&lt;/b&gt;&lt;/p&gt;" style="text;html=1;strokeColor=none;fillColor=none;spacing=5;spacingTop=-20;whiteSpace=wrap;overflow=hidden;rounded=0;" parent="1" vertex="1">
          <mxGeometry x="39" y="60" width="750" height="120" as="geometry" />
        </mxCell>
        <mxCell id="xObSriB6eqIMl1O0uH-g-4" value="" style="endArrow=none;dashed=1;html=1;rounded=0;fontSize=14;" edge="1" parent="1">
          <mxGeometry width="50" height="50" relative="1" as="geometry">
            <mxPoint x="80" y="1120" as="sourcePoint" />
            <mxPoint x="760" y="1120" as="targetPoint" />
          </mxGeometry>
        </mxCell>
        <mxCell id="xObSriB6eqIMl1O0uH-g-6" value="" style="verticalLabelPosition=bottom;verticalAlign=top;html=1;shape=mxgraph.basic.tick;fontSize=14;fillColor=#000000;" vertex="1" parent="1">
          <mxGeometry x="455" y="72.5" width="20" height="15" as="geometry" />
        </mxCell>
        <mxCell id="xObSriB6eqIMl1O0uH-g-13" value="" style="shape=curlyBracket;whiteSpace=wrap;html=1;rounded=1;fontSize=14;fillColor=#000000;" vertex="1" parent="1">
          <mxGeometry x="19" y="40" width="20" height="150" as="geometry" />
        </mxCell>
        <mxCell id="xObSriB6eqIMl1O0uH-g-15" value="" style="shape=curlyBracket;whiteSpace=wrap;html=1;rounded=1;flipH=1;fontSize=14;fillColor=#000000;" vertex="1" parent="1">
          <mxGeometry x="790" y="40" width="20" height="150" as="geometry" />
        </mxCell>
        <mxCell id="xObSriB6eqIMl1O0uH-g-16" value="" style="shape=waypoint;sketch=0;fillStyle=solid;size=6;pointerEvents=1;points=[];fillColor=none;resizable=0;rotatable=0;perimeter=centerPerimeter;snapToPoint=1;fontSize=14;" vertex="1" parent="1">
          <mxGeometry y="1120" width="40" height="40" as="geometry" />
        </mxCell>
        <mxCell id="xObSriB6eqIMl1O0uH-g-17" value="" style="shape=waypoint;sketch=0;fillStyle=solid;size=6;pointerEvents=1;points=[];fillColor=none;resizable=0;rotatable=0;perimeter=centerPerimeter;snapToPoint=1;fontSize=14;" vertex="1" parent="1">
          <mxGeometry x="787" y="1120" width="40" height="40" as="geometry" />
        </mxCell>
        <mxCell id="xObSriB6eqIMl1O0uH-g-26" style="edgeStyle=orthogonalEdgeStyle;rounded=0;orthogonalLoop=1;jettySize=auto;html=1;fontSize=14;fontColor=#000000;" edge="1" parent="1" source="xObSriB6eqIMl1O0uH-g-21" target="xObSriB6eqIMl1O0uH-g-23">
          <mxGeometry relative="1" as="geometry" />
        </mxCell>
        <mxCell id="xObSriB6eqIMl1O0uH-g-21" value="&lt;font color=&quot;#000000&quot;&gt;Início&lt;/font&gt;" style="strokeWidth=2;html=1;shape=mxgraph.flowchart.start_1;whiteSpace=wrap;fontSize=14;fontColor=#FFCCFF;fillColor=#FFCCFF;" vertex="1" parent="1">
          <mxGeometry x="364" y="250" width="100" height="50" as="geometry" />
        </mxCell>
        <mxCell id="xObSriB6eqIMl1O0uH-g-22" value="Fim" style="strokeWidth=2;html=1;shape=mxgraph.flowchart.terminator;whiteSpace=wrap;fontSize=14;fontColor=#000000;fillColor=#FFCCFF;" vertex="1" parent="1">
          <mxGeometry x="364" y="1050" width="100" height="50" as="geometry" />
        </mxCell>
        <mxCell id="xObSriB6eqIMl1O0uH-g-28" style="edgeStyle=orthogonalEdgeStyle;rounded=0;orthogonalLoop=1;jettySize=auto;html=1;fontSize=14;fontColor=#000000;" edge="1" parent="1" source="xObSriB6eqIMl1O0uH-g-23" target="xObSriB6eqIMl1O0uH-g-22">
          <mxGeometry relative="1" as="geometry" />
        </mxCell>
        <mxCell id="xObSriB6eqIMl1O0uH-g-23" value="&lt;b&gt;Olá Mundo!&lt;/b&gt;" style="strokeWidth=2;html=1;shape=mxgraph.flowchart.display;whiteSpace=wrap;fontSize=14;fontColor=#000000;fillColor=#FFCCFF;" vertex="1" parent="1">
          <mxGeometry x="349" y="620" width="130" height="60" as="geometry" />
        </mxCell>
      </root>
    </mxGraphModel>
  </diagram>
  <diagram id="d0_xw02Kloto8a-ewui5" name="2.NomeEIdade">
    <mxGraphModel dx="1273" dy="794" grid="1" gridSize="10" guides="1" tooltips="1" connect="1" arrows="1" fold="1" page="1" pageScale="1" pageWidth="827" pageHeight="1169" math="0" shadow="0">
      <root>
        <mxCell id="SBst_ieXzrYaMKY-SP4i-0" />
        <mxCell id="SBst_ieXzrYaMKY-SP4i-1" parent="SBst_ieXzrYaMKY-SP4i-0" />
        <mxCell id="_KCDdJM4tmhv-9U_Jz13-0" value="" style="endArrow=none;dashed=1;html=1;rounded=0;fontSize=14;entryX=0.056;entryY=1.025;entryDx=0;entryDy=0;entryPerimeter=0;" edge="1" parent="SBst_ieXzrYaMKY-SP4i-1" target="_KCDdJM4tmhv-9U_Jz13-4">
          <mxGeometry width="50" height="50" relative="1" as="geometry">
            <mxPoint x="80" y="1120" as="sourcePoint" />
            <mxPoint x="80" y="200" as="targetPoint" />
          </mxGeometry>
        </mxCell>
        <mxCell id="_KCDdJM4tmhv-9U_Jz13-1" value="" style="endArrow=none;dashed=1;html=1;rounded=0;fontSize=14;entryX=0.96;entryY=1.017;entryDx=0;entryDy=0;entryPerimeter=0;" edge="1" parent="SBst_ieXzrYaMKY-SP4i-1" target="_KCDdJM4tmhv-9U_Jz13-4">
          <mxGeometry width="50" height="50" relative="1" as="geometry">
            <mxPoint x="760" y="1120" as="sourcePoint" />
            <mxPoint x="760" y="200" as="targetPoint" />
            <Array as="points" />
          </mxGeometry>
        </mxCell>
        <mxCell id="_KCDdJM4tmhv-9U_Jz13-2" value="" style="rounded=0;whiteSpace=wrap;html=1;fontSize=14;fillColor=#f8cecc;strokeColor=#b85450;" vertex="1" parent="SBst_ieXzrYaMKY-SP4i-1">
          <mxGeometry x="34" y="40" width="760" height="150" as="geometry" />
        </mxCell>
        <mxCell id="_KCDdJM4tmhv-9U_Jz13-3" value="" style="ellipse;shape=cloud;whiteSpace=wrap;html=1;fontSize=14;fillColor=#ffe6cc;strokeColor=#d79b00;" vertex="1" parent="SBst_ieXzrYaMKY-SP4i-1">
          <mxGeometry x="319" y="50" width="190" height="60" as="geometry" />
        </mxCell>
        <mxCell id="_KCDdJM4tmhv-9U_Jz13-4" value="&lt;h1&gt;&lt;span style=&quot;white-space: pre&quot;&gt;	&lt;/span&gt;&lt;span style=&quot;white-space: pre&quot;&gt;	&lt;/span&gt;&lt;span style=&quot;white-space: pre&quot;&gt;	&lt;/span&gt;&lt;span style=&quot;white-space: pre&quot;&gt;	&lt;/span&gt;&lt;span style=&quot;white-space: pre&quot;&gt;	&lt;/span&gt;&lt;span style=&quot;white-space: pre&quot;&gt;	&lt;/span&gt;&amp;nbsp;&lt;font style=&quot;font-size: 26px&quot;&gt;Aula II&lt;/font&gt;&lt;br&gt;&lt;/h1&gt;&lt;p style=&quot;font-size: 14px&quot;&gt;&lt;span style=&quot;white-space: pre&quot;&gt;	&lt;/span&gt;&lt;span style=&quot;white-space: pre&quot;&gt;	&lt;/span&gt;&lt;span style=&quot;white-space: pre&quot;&gt;	&lt;/span&gt;&lt;span style=&quot;white-space: pre&quot;&gt;	&lt;/span&gt;&lt;span style=&quot;white-space: pre&quot;&gt;	&lt;/span&gt;&lt;span style=&quot;white-space: pre&quot;&gt;	&lt;/span&gt;&lt;span style=&quot;white-space: pre&quot;&gt;	&lt;span style=&quot;white-space: pre&quot;&gt;	&lt;/span&gt;&lt;/span&gt;Lógica de Programação com Fluxograma&lt;br&gt;&lt;/p&gt;&lt;p style=&quot;font-size: 14px&quot;&gt;&lt;span style=&quot;white-space: pre&quot;&gt;	&lt;/span&gt;&lt;span style=&quot;white-space: pre&quot;&gt;	&lt;/span&gt;Criar um programa que pergunte &lt;b&gt;Nome&lt;/b&gt;, &lt;b&gt;Idade &lt;/b&gt;e exiba na tela. Tela: &quot;Olá, seu_nome, você tem sua_idade&quot;.&lt;/p&gt;" style="text;html=1;strokeColor=none;fillColor=none;spacing=5;spacingTop=-20;whiteSpace=wrap;overflow=hidden;rounded=0;" vertex="1" parent="SBst_ieXzrYaMKY-SP4i-1">
          <mxGeometry x="39" y="60" width="750" height="120" as="geometry" />
        </mxCell>
        <mxCell id="_KCDdJM4tmhv-9U_Jz13-5" value="" style="endArrow=none;dashed=1;html=1;rounded=0;fontSize=14;" edge="1" parent="SBst_ieXzrYaMKY-SP4i-1">
          <mxGeometry width="50" height="50" relative="1" as="geometry">
            <mxPoint x="80" y="1120" as="sourcePoint" />
            <mxPoint x="760" y="1120" as="targetPoint" />
          </mxGeometry>
        </mxCell>
        <mxCell id="_KCDdJM4tmhv-9U_Jz13-6" value="" style="verticalLabelPosition=bottom;verticalAlign=top;html=1;shape=mxgraph.basic.tick;fontSize=14;fillColor=#000000;" vertex="1" parent="SBst_ieXzrYaMKY-SP4i-1">
          <mxGeometry x="455" y="72.5" width="20" height="15" as="geometry" />
        </mxCell>
        <mxCell id="_KCDdJM4tmhv-9U_Jz13-7" value="" style="shape=curlyBracket;whiteSpace=wrap;html=1;rounded=1;fontSize=14;fillColor=#000000;" vertex="1" parent="SBst_ieXzrYaMKY-SP4i-1">
          <mxGeometry x="19" y="40" width="20" height="150" as="geometry" />
        </mxCell>
        <mxCell id="_KCDdJM4tmhv-9U_Jz13-8" value="" style="shape=curlyBracket;whiteSpace=wrap;html=1;rounded=1;flipH=1;fontSize=14;fillColor=#000000;" vertex="1" parent="SBst_ieXzrYaMKY-SP4i-1">
          <mxGeometry x="790" y="40" width="20" height="150" as="geometry" />
        </mxCell>
        <mxCell id="_KCDdJM4tmhv-9U_Jz13-10" value="&lt;font color=&quot;#000000&quot;&gt;Início&lt;/font&gt;" style="strokeWidth=2;html=1;shape=mxgraph.flowchart.start_1;whiteSpace=wrap;fontSize=14;fontColor=#FFCCFF;fillColor=#FFCCFF;" vertex="1" parent="SBst_ieXzrYaMKY-SP4i-1">
          <mxGeometry x="364" y="250" width="100" height="50" as="geometry" />
        </mxCell>
        <mxCell id="_KCDdJM4tmhv-9U_Jz13-11" value="Fim" style="strokeWidth=2;html=1;shape=mxgraph.flowchart.terminator;whiteSpace=wrap;fontSize=14;fontColor=#000000;fillColor=#FFCCFF;" vertex="1" parent="SBst_ieXzrYaMKY-SP4i-1">
          <mxGeometry x="364" y="1050" width="100" height="50" as="geometry" />
        </mxCell>
        <mxCell id="_KCDdJM4tmhv-9U_Jz13-12" style="edgeStyle=orthogonalEdgeStyle;rounded=0;orthogonalLoop=1;jettySize=auto;html=1;fontSize=14;fontColor=#000000;" edge="1" parent="SBst_ieXzrYaMKY-SP4i-1" source="_KCDdJM4tmhv-9U_Jz13-13" target="_KCDdJM4tmhv-9U_Jz13-11">
          <mxGeometry relative="1" as="geometry" />
        </mxCell>
        <mxCell id="_KCDdJM4tmhv-9U_Jz13-13" value="&lt;b&gt;&quot;Olá, +NOME+, você tem +IDADE+ anos&quot;&lt;/b&gt;" style="strokeWidth=2;html=1;shape=mxgraph.flowchart.display;whiteSpace=wrap;fontSize=14;fontColor=#000000;fillColor=#FFCCFF;" vertex="1" parent="SBst_ieXzrYaMKY-SP4i-1">
          <mxGeometry x="219" y="820" width="390" height="60" as="geometry" />
        </mxCell>
        <mxCell id="0A_veulNjYX5AdPP-VnO-8" style="edgeStyle=orthogonalEdgeStyle;rounded=0;orthogonalLoop=1;jettySize=auto;html=1;fontSize=14;fontColor=#000000;" edge="1" parent="SBst_ieXzrYaMKY-SP4i-1" source="0A_veulNjYX5AdPP-VnO-0" target="0A_veulNjYX5AdPP-VnO-5">
          <mxGeometry relative="1" as="geometry">
            <mxPoint x="414" y="585" as="targetPoint" />
          </mxGeometry>
        </mxCell>
        <mxCell id="0A_veulNjYX5AdPP-VnO-9" style="edgeStyle=orthogonalEdgeStyle;rounded=0;orthogonalLoop=1;jettySize=auto;html=1;exitX=0.5;exitY=1;exitDx=0;exitDy=0;fontSize=14;fontColor=#000000;" edge="1" parent="SBst_ieXzrYaMKY-SP4i-1" source="0A_veulNjYX5AdPP-VnO-5" target="_KCDdJM4tmhv-9U_Jz13-13">
          <mxGeometry relative="1" as="geometry" />
        </mxCell>
        <mxCell id="0A_veulNjYX5AdPP-VnO-5" value="IDADE&lt;br&gt;Receber &lt;b&gt;Idade&lt;/b&gt;" style="shape=parallelogram;html=1;strokeWidth=2;perimeter=parallelogramPerimeter;whiteSpace=wrap;rounded=1;arcSize=12;size=0.23;fontSize=14;fontColor=#000000;fillColor=#FFCCFF;" vertex="1" parent="SBst_ieXzrYaMKY-SP4i-1">
          <mxGeometry x="329" y="590" width="170" height="60" as="geometry" />
        </mxCell>
        <mxCell id="0A_veulNjYX5AdPP-VnO-0" value="NOME&lt;br&gt;Receber &lt;b&gt;Nome&lt;/b&gt;" style="shape=parallelogram;html=1;strokeWidth=2;perimeter=parallelogramPerimeter;whiteSpace=wrap;rounded=1;arcSize=12;size=0.23;fontSize=14;fontColor=#000000;fillColor=#FFCCFF;" vertex="1" parent="SBst_ieXzrYaMKY-SP4i-1">
          <mxGeometry x="329" y="400" width="170" height="60" as="geometry" />
        </mxCell>
        <mxCell id="0A_veulNjYX5AdPP-VnO-10" value="" style="edgeStyle=orthogonalEdgeStyle;rounded=0;orthogonalLoop=1;jettySize=auto;html=1;fontSize=14;fontColor=#000000;endArrow=none;" edge="1" parent="SBst_ieXzrYaMKY-SP4i-1" source="_KCDdJM4tmhv-9U_Jz13-10" target="0A_veulNjYX5AdPP-VnO-0">
          <mxGeometry relative="1" as="geometry">
            <mxPoint x="414" y="300" as="sourcePoint" />
            <mxPoint x="550" y="710" as="targetPoint" />
            <Array as="points" />
          </mxGeometry>
        </mxCell>
      </root>
    </mxGraphModel>
  </diagram>
  <diagram name="3.Leitura" id="zrvnYpi6KQ8FY52iDIZ6">
    <mxGraphModel dx="1273" dy="794" grid="1" gridSize="10" guides="1" tooltips="1" connect="1" arrows="1" fold="1" page="1" pageScale="1" pageWidth="827" pageHeight="1169" math="0" shadow="0">
      <root>
        <mxCell id="hzOD0KkCKcYPik-1hBQL-0" />
        <mxCell id="hzOD0KkCKcYPik-1hBQL-1" parent="hzOD0KkCKcYPik-1hBQL-0" />
        <mxCell id="hzOD0KkCKcYPik-1hBQL-2" value="" style="endArrow=none;dashed=1;html=1;rounded=0;fontSize=14;entryX=0.056;entryY=1.025;entryDx=0;entryDy=0;entryPerimeter=0;" edge="1" parent="hzOD0KkCKcYPik-1hBQL-1" target="hzOD0KkCKcYPik-1hBQL-6">
          <mxGeometry width="50" height="50" relative="1" as="geometry">
            <mxPoint x="80" y="1120" as="sourcePoint" />
            <mxPoint x="80" y="200" as="targetPoint" />
          </mxGeometry>
        </mxCell>
        <mxCell id="hzOD0KkCKcYPik-1hBQL-3" value="" style="endArrow=none;dashed=1;html=1;rounded=0;fontSize=14;entryX=0.96;entryY=1.017;entryDx=0;entryDy=0;entryPerimeter=0;" edge="1" parent="hzOD0KkCKcYPik-1hBQL-1" target="hzOD0KkCKcYPik-1hBQL-6">
          <mxGeometry width="50" height="50" relative="1" as="geometry">
            <mxPoint x="760" y="1120" as="sourcePoint" />
            <mxPoint x="760" y="200" as="targetPoint" />
            <Array as="points" />
          </mxGeometry>
        </mxCell>
        <mxCell id="hzOD0KkCKcYPik-1hBQL-4" value="" style="rounded=0;whiteSpace=wrap;html=1;fontSize=14;fillColor=#f8cecc;strokeColor=#b85450;" vertex="1" parent="hzOD0KkCKcYPik-1hBQL-1">
          <mxGeometry x="34" y="40" width="760" height="150" as="geometry" />
        </mxCell>
        <mxCell id="hzOD0KkCKcYPik-1hBQL-5" value="" style="ellipse;shape=cloud;whiteSpace=wrap;html=1;fontSize=14;fillColor=#ffe6cc;strokeColor=#d79b00;" vertex="1" parent="hzOD0KkCKcYPik-1hBQL-1">
          <mxGeometry x="319" y="50" width="190" height="60" as="geometry" />
        </mxCell>
        <mxCell id="hzOD0KkCKcYPik-1hBQL-6" value="&lt;h1&gt;&lt;span style=&quot;white-space: pre&quot;&gt;	&lt;/span&gt;&lt;span style=&quot;white-space: pre&quot;&gt;	&lt;/span&gt;&lt;span style=&quot;white-space: pre&quot;&gt;	&lt;/span&gt;&lt;span style=&quot;white-space: pre&quot;&gt;	&lt;/span&gt;&lt;span style=&quot;white-space: pre&quot;&gt;	&lt;/span&gt;&lt;span style=&quot;white-space: pre&quot;&gt;	&lt;/span&gt;&amp;nbsp;&lt;font style=&quot;font-size: 26px&quot;&gt;Aula II&lt;/font&gt;&lt;br&gt;&lt;/h1&gt;&lt;p style=&quot;font-size: 14px&quot;&gt;&lt;span style=&quot;white-space: pre&quot;&gt;	&lt;/span&gt;&lt;span style=&quot;white-space: pre&quot;&gt;	&lt;/span&gt;&lt;span style=&quot;white-space: pre&quot;&gt;	&lt;/span&gt;&lt;span style=&quot;white-space: pre&quot;&gt;	&lt;/span&gt;&lt;span style=&quot;white-space: pre&quot;&gt;	&lt;/span&gt;&lt;span style=&quot;white-space: pre&quot;&gt;	&lt;/span&gt;&lt;span style=&quot;white-space: pre&quot;&gt;	&lt;span style=&quot;white-space: pre&quot;&gt;	&lt;/span&gt;&lt;/span&gt;Lógica de Programação com Fluxograma&lt;br&gt;&lt;/p&gt;&lt;p style=&quot;font-size: 14px&quot;&gt;&lt;span style=&quot;white-space: pre&quot;&gt;	&lt;/span&gt;&lt;span style=&quot;white-space: pre&quot;&gt;	&lt;/span&gt;Criar um programa que &lt;b&gt;leia notas &lt;/b&gt;e &lt;b&gt;receber médias&lt;/b&gt;. Tela: &quot;Olá, seu_nome, você tem sua_idade&quot;.&lt;/p&gt;" style="text;html=1;strokeColor=none;fillColor=none;spacing=5;spacingTop=-20;whiteSpace=wrap;overflow=hidden;rounded=0;" vertex="1" parent="hzOD0KkCKcYPik-1hBQL-1">
          <mxGeometry x="39" y="60" width="750" height="120" as="geometry" />
        </mxCell>
        <mxCell id="hzOD0KkCKcYPik-1hBQL-7" value="" style="endArrow=none;dashed=1;html=1;rounded=0;fontSize=14;" edge="1" parent="hzOD0KkCKcYPik-1hBQL-1">
          <mxGeometry width="50" height="50" relative="1" as="geometry">
            <mxPoint x="80" y="1120" as="sourcePoint" />
            <mxPoint x="760" y="1120" as="targetPoint" />
          </mxGeometry>
        </mxCell>
        <mxCell id="hzOD0KkCKcYPik-1hBQL-8" value="" style="verticalLabelPosition=bottom;verticalAlign=top;html=1;shape=mxgraph.basic.tick;fontSize=14;fillColor=#000000;" vertex="1" parent="hzOD0KkCKcYPik-1hBQL-1">
          <mxGeometry x="455" y="72.5" width="20" height="15" as="geometry" />
        </mxCell>
        <mxCell id="hzOD0KkCKcYPik-1hBQL-9" value="" style="shape=curlyBracket;whiteSpace=wrap;html=1;rounded=1;fontSize=14;fillColor=#000000;" vertex="1" parent="hzOD0KkCKcYPik-1hBQL-1">
          <mxGeometry x="19" y="40" width="20" height="150" as="geometry" />
        </mxCell>
        <mxCell id="hzOD0KkCKcYPik-1hBQL-10" value="" style="shape=curlyBracket;whiteSpace=wrap;html=1;rounded=1;flipH=1;fontSize=14;fillColor=#000000;" vertex="1" parent="hzOD0KkCKcYPik-1hBQL-1">
          <mxGeometry x="790" y="40" width="20" height="150" as="geometry" />
        </mxCell>
        <mxCell id="hzOD0KkCKcYPik-1hBQL-11" value="&lt;font color=&quot;#000000&quot;&gt;Início&lt;/font&gt;" style="strokeWidth=2;html=1;shape=mxgraph.flowchart.start_1;whiteSpace=wrap;fontSize=14;fontColor=#FFCCFF;fillColor=#FFCCFF;" vertex="1" parent="hzOD0KkCKcYPik-1hBQL-1">
          <mxGeometry x="364" y="250" width="100" height="50" as="geometry" />
        </mxCell>
        <mxCell id="hzOD0KkCKcYPik-1hBQL-12" value="Fim" style="strokeWidth=2;html=1;shape=mxgraph.flowchart.terminator;whiteSpace=wrap;fontSize=14;fontColor=#000000;fillColor=#FFCCFF;" vertex="1" parent="hzOD0KkCKcYPik-1hBQL-1">
          <mxGeometry x="364" y="980" width="100" height="50" as="geometry" />
        </mxCell>
        <mxCell id="hzOD0KkCKcYPik-1hBQL-13" style="edgeStyle=orthogonalEdgeStyle;rounded=0;orthogonalLoop=1;jettySize=auto;html=1;fontSize=14;fontColor=#000000;" edge="1" parent="hzOD0KkCKcYPik-1hBQL-1" source="hzOD0KkCKcYPik-1hBQL-14" target="hzOD0KkCKcYPik-1hBQL-12">
          <mxGeometry relative="1" as="geometry" />
        </mxCell>
        <mxCell id="hzOD0KkCKcYPik-1hBQL-14" value="&lt;b&gt;&quot;Olá, sua média é de +MÉDIA+!&quot;&lt;/b&gt;" style="strokeWidth=2;html=1;shape=mxgraph.flowchart.display;whiteSpace=wrap;fontSize=14;fontColor=#000000;fillColor=#FFCCFF;" vertex="1" parent="hzOD0KkCKcYPik-1hBQL-1">
          <mxGeometry x="219" y="820" width="390" height="60" as="geometry" />
        </mxCell>
        <mxCell id="hzOD0KkCKcYPik-1hBQL-15" style="edgeStyle=orthogonalEdgeStyle;rounded=0;orthogonalLoop=1;jettySize=auto;html=1;fontSize=14;fontColor=#000000;" edge="1" parent="hzOD0KkCKcYPik-1hBQL-1" source="hzOD0KkCKcYPik-1hBQL-18" target="hzOD0KkCKcYPik-1hBQL-17">
          <mxGeometry relative="1" as="geometry">
            <mxPoint x="414" y="585" as="targetPoint" />
          </mxGeometry>
        </mxCell>
        <mxCell id="hzOD0KkCKcYPik-1hBQL-16" style="edgeStyle=orthogonalEdgeStyle;rounded=0;orthogonalLoop=1;jettySize=auto;html=1;exitX=0.5;exitY=1;exitDx=0;exitDy=0;fontSize=14;fontColor=#000000;startArrow=none;" edge="1" parent="hzOD0KkCKcYPik-1hBQL-1" source="hzOD0KkCKcYPik-1hBQL-23" target="hzOD0KkCKcYPik-1hBQL-14">
          <mxGeometry relative="1" as="geometry">
            <mxPoint x="414" y="690" as="sourcePoint" />
          </mxGeometry>
        </mxCell>
        <mxCell id="hzOD0KkCKcYPik-1hBQL-24" value="" style="edgeStyle=orthogonalEdgeStyle;rounded=0;orthogonalLoop=1;jettySize=auto;html=1;fontSize=14;fontColor=#000000;" edge="1" parent="hzOD0KkCKcYPik-1hBQL-1" source="hzOD0KkCKcYPik-1hBQL-17" target="hzOD0KkCKcYPik-1hBQL-20">
          <mxGeometry relative="1" as="geometry" />
        </mxCell>
        <mxCell id="hzOD0KkCKcYPik-1hBQL-17" value="N2&lt;br&gt;Receber&amp;nbsp;&lt;b&gt;N2&lt;/b&gt;" style="shape=parallelogram;html=1;strokeWidth=2;perimeter=parallelogramPerimeter;whiteSpace=wrap;rounded=1;arcSize=12;size=0.23;fontSize=14;fontColor=#000000;fillColor=#FFCCFF;" vertex="1" parent="hzOD0KkCKcYPik-1hBQL-1">
          <mxGeometry x="329" y="450" width="170" height="50" as="geometry" />
        </mxCell>
        <mxCell id="hzOD0KkCKcYPik-1hBQL-18" value="N1&lt;br&gt;Receber &lt;b&gt;N1&lt;/b&gt;" style="shape=parallelogram;html=1;strokeWidth=2;perimeter=parallelogramPerimeter;whiteSpace=wrap;rounded=1;arcSize=12;size=0.23;fontSize=14;fontColor=#000000;fillColor=#FFCCFF;" vertex="1" parent="hzOD0KkCKcYPik-1hBQL-1">
          <mxGeometry x="329" y="330" width="170" height="60" as="geometry" />
        </mxCell>
        <mxCell id="hzOD0KkCKcYPik-1hBQL-19" value="" style="edgeStyle=orthogonalEdgeStyle;rounded=0;orthogonalLoop=1;jettySize=auto;html=1;fontSize=14;fontColor=#000000;endArrow=none;" edge="1" parent="hzOD0KkCKcYPik-1hBQL-1" source="hzOD0KkCKcYPik-1hBQL-11" target="hzOD0KkCKcYPik-1hBQL-18">
          <mxGeometry relative="1" as="geometry">
            <mxPoint x="414" y="300" as="sourcePoint" />
            <mxPoint x="550" y="710" as="targetPoint" />
            <Array as="points" />
          </mxGeometry>
        </mxCell>
        <mxCell id="hzOD0KkCKcYPik-1hBQL-27" style="edgeStyle=orthogonalEdgeStyle;rounded=0;orthogonalLoop=1;jettySize=auto;html=1;entryX=0.5;entryY=0;entryDx=0;entryDy=0;fontSize=14;fontColor=#000000;" edge="1" parent="hzOD0KkCKcYPik-1hBQL-1" source="hzOD0KkCKcYPik-1hBQL-20" target="hzOD0KkCKcYPik-1hBQL-23">
          <mxGeometry relative="1" as="geometry" />
        </mxCell>
        <mxCell id="hzOD0KkCKcYPik-1hBQL-20" value="&lt;span&gt;N3&lt;/span&gt;&lt;br&gt;&lt;span&gt;Receber&amp;nbsp;&lt;/span&gt;&lt;b&gt;N3&lt;/b&gt;" style="shape=parallelogram;html=1;strokeWidth=2;perimeter=parallelogramPerimeter;whiteSpace=wrap;rounded=1;arcSize=12;size=0.23;fontSize=14;fontColor=#000000;fillColor=#FFCCFF;" vertex="1" parent="hzOD0KkCKcYPik-1hBQL-1">
          <mxGeometry x="329" y="550" width="170" height="60" as="geometry" />
        </mxCell>
        <mxCell id="hzOD0KkCKcYPik-1hBQL-23" value="MÉDIA = Somar N1+N2+N3 e dividir por 3" style="rounded=1;whiteSpace=wrap;html=1;absoluteArcSize=1;arcSize=14;strokeWidth=2;fontSize=14;fontColor=#000000;fillColor=#FFCCFF;" vertex="1" parent="hzOD0KkCKcYPik-1hBQL-1">
          <mxGeometry x="324" y="680" width="180" height="60" as="geometry" />
        </mxCell>
      </root>
    </mxGraphModel>
  </diagram>
</mxfile>
